<svg width="11" height="11" viewBox="0 0 11 11" fill="none" xmlns="http://www.w3.org/2000/svg">
<g id="angle-arrow-down_icon-icons.com_73683 1" clip-path="url(#clip0_66_274)">
<g id="Group">
<path id="Vector" d="M8.04575 10.8901L8.59677 10.339C8.67036 10.2656 8.70703 10.181 8.70703 10.0854C8.70703 9.98999 8.67036 9.90544 8.59677 9.83201L4.26505 5.50006L8.59666 1.1683C8.67024 1.09483 8.70692 1.01028 8.70692 0.914772C8.70692 0.819222 8.67024 0.734674 8.59666 0.661246L8.04559 0.110259C7.97216 0.0366758 7.88762 -3.58178e-08 7.79207 -3.99944e-08C7.69659 -4.41676e-08 7.61205 0.0367916 7.53862 0.110259L2.40223 5.24653C2.32876 5.31996 2.29205 5.40455 2.29205 5.50006C2.29205 5.59557 2.32876 5.68 2.40223 5.75339L7.53862 10.8901C7.61208 10.9635 7.69663 11 7.79207 11C7.88762 11 7.97216 10.9635 8.04575 10.8901Z" fill="black"/>
</g>
</g>
<defs>
<clipPath id="clip0_66_274">
<rect width="11" height="11" fill="white" transform="translate(11) rotate(90)"/>
</clipPath>
</defs>
</svg>
